<svg width="32" height="32" viewBox="0 0 32 32" fill="none" xmlns="http://www.w3.org/2000/svg">
<rect width="32" height="32" rx="8" fill="#25B4B9"/>
<path d="M5.82 4.802H13.814V6.314C13.814 8.12 13.562 9.478 13.296 10.416C13.142 10.962 12.96 11.424 12.778 11.816H11.042C11.49 10.934 11.588 10.234 11.742 9.338H6.044V7.77H11.952C11.994 7.028 12.05 6.748 12.008 6.384H5.82V4.802ZM4.56 14.084V12.432H15.088V14.084H4.56ZM17.5524 8.89V5.67H23.8104V4.984H17.5524V3.794H25.6724V7.014H19.2744V7.56H25.6724V8.904H17.5104L17.5524 8.89ZM27.0584 9.996V11.676H22.5504V15.554H20.7024V11.676H16.2084V9.996H27.0584ZM7.584 17.158H9.362C10.37 17.158 11.21 17.998 11.21 19.062V20.826C11.21 21.876 10.37 22.744 9.362 22.744H7.584C6.562 22.744 5.666 21.876 5.666 20.826V19.062C5.666 17.998 6.562 17.158 7.584 17.158ZM14.808 28.568H13.002V16.808H14.808V28.568ZM12.498 25.166H9.012V28.554H7.234V25.166H4.56V23.626H12.498V25.166ZM9.586 20.462V19.426C9.586 18.978 9.236 18.628 8.788 18.628H8.172C7.71 18.628 7.304 18.978 7.304 19.426V20.462C7.304 20.91 7.71 21.26 8.172 21.26H8.788C9.236 21.26 9.586 20.91 9.586 20.462ZM16.4152 17.914H22.4632V19.216C22.4632 22.436 18.6692 26.188 17.0592 27.308V24.956C18.0532 24.116 18.7532 23.318 19.2572 22.492H16.5692V21.036H20.0412C20.3212 20.658 20.4332 20.182 20.5312 19.72H16.4152V17.914ZM25.8792 28.568H24.0312V16.794H25.8792V28.568Z" fill="white"/>
</svg>
