<svg width="36" height="36" viewBox="0 0 36 36" fill="none" xmlns="http://www.w3.org/2000/svg">
<rect width="36" height="36" rx="12" fill="white"/>
<path d="M22.1988 20.6083H21.3648L21.0691 20.3234C21.7289 19.5574 22.2112 18.655 22.4813 17.6809C22.7514 16.7068 22.8028 15.6851 22.6317 14.6889C22.1355 11.7555 19.6861 9.41303 16.7299 9.05428C15.6906 8.92287 14.635 9.03082 13.6438 9.36987C12.6527 9.70891 11.7523 10.2701 11.0116 11.0104C10.2708 11.7507 9.70932 12.6506 9.37008 13.6411C9.03084 14.6317 8.92283 15.6866 9.05431 16.7253C9.41328 19.6798 11.7571 22.1278 14.6922 22.6237C15.689 22.7947 16.7113 22.7434 17.686 22.4734C18.6607 22.2034 19.5635 21.7215 20.3301 21.0621L20.6151 21.3575V22.1911L25.1022 26.6755C25.5351 27.1082 26.2425 27.1082 26.6753 26.6755C27.1082 26.2429 27.1082 25.536 26.6753 25.1033L22.1988 20.6083ZM15.8641 20.6083C13.2352 20.6083 11.1131 18.4875 11.1131 15.8601C11.1131 13.2327 13.2352 11.1118 15.8641 11.1118C18.493 11.1118 20.6151 13.2327 20.6151 15.8601C20.6151 18.4875 18.493 20.6083 15.8641 20.6083Z" fill="#25B4B9"/>
</svg>
