<svg width="24" height="24" viewBox="0 0 24 24" fill="none" xmlns="http://www.w3.org/2000/svg">
<g clip-path="url(#clip0_3_2590)">
<circle cx="12" cy="12" r="12" fill="#C655C1"/>
<path d="M14.7992 13.7389H14.2432L14.0461 13.549C14.486 13.0382 14.8074 12.4367 14.9875 11.7873C15.1676 11.1379 15.2019 10.4567 15.0878 9.79257C14.757 7.837 13.124 6.27536 11.1532 6.03618C10.4604 5.94858 9.75664 6.02055 9.09589 6.24658C8.43513 6.47261 7.83487 6.84671 7.34104 7.34025C6.8472 7.8338 6.47288 8.4337 6.24672 9.09407C6.02056 9.75444 5.94855 10.4578 6.03621 11.1502C6.27552 13.1199 7.83808 14.7519 9.7948 15.0825C10.4593 15.1965 11.1409 15.1622 11.7907 14.9823C12.4404 14.8023 13.0424 14.481 13.5534 14.0414L13.7434 14.2383V14.7941L16.7348 17.7837C17.0234 18.0721 17.495 18.0721 17.7836 17.7837C18.0721 17.4953 18.0721 17.024 17.7836 16.7356L14.7992 13.7389ZM10.5761 13.7389C8.82348 13.7389 7.40873 12.325 7.40873 10.5734C7.40873 8.82182 8.82348 7.4079 10.5761 7.4079C12.3287 7.4079 13.7434 8.82182 13.7434 10.5734C13.7434 12.325 12.3287 13.7389 10.5761 13.7389Z" fill="white"/>
</g>
<defs>
<clipPath id="clip0_3_2590">
<rect width="24" height="24" fill="white"/>
</clipPath>
</defs>
</svg>
